PathFileType	4	(X/Y/Z)	walk-thru1-1-TP.trc
DataRate	CameraRate	NumFrames	NumMarkers	Units	OrigDataRate	OrigDataStartFrame	OrigNumFrames
120.00	120.00	       4	60	mm	120.00	65	       514
Frame#	Time	Top.Head			Front.Head			Rear.Head			Jaw			C7			R.Clavicle			L.Clavicle			R.Shoulder			L.Shoulder			R.Scapula			L.Scapula			R.Scap.Inf			R.Biceps.Lateral			R.Elbow			R.Elbow.Medial			R.Forearm			R.Ulna			R.Radius			R.Wrist			R.Thumb.M1			R.Thumb.M2			R.Thumb.M3			R.Finger3.M1			R.Finger3.M2			R.Finger3.M3			L.Biceps.Lateral			L.Elbow			L.Elbow.Medial			L.Forearm			L.Ulna			L.Radius			L.Wrist			L.Thumb.M1			L.Thumb.M2			L.Thumb.M3			L.Finger3.M1			L.Finger3.M2			L.Finger3.M3			V.Sacral			R.ASIS			L.ASIS			R.Thigh			R.Thigh.Front			R.Knee			R.Knee.Medial			R.Shank			R.Ankle			R.Ankle.Medial			R.Heel			R.Toe			R.MedFoot			L.Thigh			L.Knee			L.Knee.Medial			L.Shank			L.Ankle			L.Ankle.Medial			L.Heel			L.Toe			L.MedFoot			V_mid_ASIS			V_R_Knee_JC			V_L_Knee_JC			V_R_Elbow_JC			V_L_Elbow_JC			V_R_Ankle_JC			V_L_Ankle_JC			V_R_Wrist_JC			V_L_Wrist_JC			V_R_ScaTrpz_1stMC_JC			V_R_1stMC_1stPP_JC			V_R_1stPP_1stDP_JC			V_R_LunCap_3rdMC_JC			V_R_3rdMC_3rdPP_JC			V_R_3rdPP_3rdMP_JC			V_R_3rdMP_3rdDP_JC			V_L_ScaTrpz_1stMC_JC			V_L_1stMC_1stPP_JC			V_L_1stPP_1stDP_JC			V_L_LunCap_3rdMC_JC			V_L_3rdMC_3rdPP_JC			V_L_3rdPP_3rdMP_JC			V_L_3rdMP_3rdPP_JC			V_ROOT_JC			V_R_Hip_JC			V_L_Hip_JC			V_R_GlenHum_JC			V_L_GlenHum_JC			V_ForeHead_Ctr			V_Vertex			V_Sagit_Lambdoid_Suture			V_R_FrontoTemp			V_L_FrontoTemporal			V_R_ParietalOccip			V_L_ParietalOcciptal			V_R_Temporal			V_L_Temporal			V_mid_FrontRearHead			V_mid_RLGlenHumCtrs			V_C7_vert			V_C1_vert			V_Mid_Hip			
		X1	Y1	Z1	X2	Y2	Z2	X3	Y3	Z3	X4	Y4	Z4	X5	Y5	Z5	X6	Y6	Z6	X7	Y7	Z7	X8	Y8	Z8	X9	Y9	Z9	X10	Y10	Z10	X11	Y11	Z11	X12	Y12	Z12	X13	Y13	Z13	X14	Y14	Z14	X15	Y15	Z15	X16	Y16	Z16	X17	Y17	Z17	X18	Y18	Z18	X19	Y19	Z19	X20	Y20	Z20	X21	Y21	Z21	X22	Y22	Z22	X23	Y23	Z23	X24	Y24	Z24	X25	Y25	Z25	X26	Y26	Z26	X27	Y27	Z27	X28	Y28	Z28	X29	Y29	Z29	X30	Y30	Z30	X31	Y31	Z31	X32	Y32	Z32	X33	Y33	Z33	X34	Y34	Z34	X35	Y35	Z35	X36	Y36	Z36	X37	Y37	Z37	X38	Y38	Z38	X39	Y39	Z39	X40	Y40	Z40	X41	Y41	Z41	X42	Y42	Z42	X43	Y43	Z43	X44	Y44	Z44	X45	Y45	Z45	X46	Y46	Z46	X47	Y47	Z47	X48	Y48	Z48	X49	Y49	Z49	X50	Y50	Z50	X51	Y51	Z51	X52	Y52	Z52	X53	Y53	Z53	X54	Y54	Z54	X55	Y55	Z55	X56	Y56	Z56	X57	Y57	Z57	X58	Y58	Z58	X59	Y59	Z59	X60	Y60	Z60	

65	0.533	818.68860	-61.70300	1764.45886	723.71960	-42.10493	1639.94592	953.51709	-64.47678	1696.79089	820.60211	-41.00655	1468.17078	1050.59033	-49.66715	1571.64136	952.44232	75.53029	1493.73022	947.74585	-169.69116	1475.21704	1002.02301	180.76218	1488.26123	996.94458	-271.08884	1474.53748	1115.80688	52.86456	1485.60095	1122.39966	-137.70631	1472.15918	1148.86780	57.95152	1396.66077	1043.28320	221.38385	1351.15247	1114.61292	257.26767	1173.97278	1117.62085	158.54666	1162.08081	1020.97534	248.66901	1104.71436	1086.06262	261.91742	971.46155	976.73651	243.32219	934.39807	972.01636	288.43649	906.02435	962.22296	235.49930	887.07874	969.99634	207.37355	841.01190	983.53662	204.37573	790.28381	963.56879	301.11560	821.49561	1011.66162	261.70810	768.99487	1032.75732	215.68652	807.30109	1053.43042	-297.08957	1329.48926	1116.33728	-305.43579	1160.91968	1127.28784	-211.65179	1142.25745	1034.15161	-306.01199	1077.23608	1099.54553	-328.37692	974.97107	1004.87347	-311.09509	915.34070	1028.13953	-354.40775	883.68719	985.58264	-310.36133	858.75549	968.15875	-285.77341	813.42896	961.12421	-289.23859	764.36713	1006.50494	-366.57281	784.73315	1008.43481	-334.78345	725.66675	1016.68555	-275.69104	725.22180	1170.11536	-35.23188	1118.84607	981.41376	157.21680	1065.09827	978.36157	-193.16316	1061.44116	941.02039	161.77742	689.07788	846.15253	90.14377	584.45062	902.06085	147.35875	528.90369	902.52124	25.28710	523.34503	1008.10840	109.66451	333.00812	1213.62305	140.41852	198.36055	1176.58850	38.77625	198.21808	1279.03540	82.74587	195.10750	1100.60132	108.59109	70.42706	1117.81860	75.82096	127.88963	975.74011	-181.53671	671.72809	960.30731	-149.90495	531.83783	975.82471	-40.09520	517.15527	959.11066	-95.80299	322.90344	1063.43372	-97.14816	78.39165	1014.18463	-7.99572	111.61662	1101.37891	-24.83712	48.05711	880.61597	-91.70299	42.63334	944.11511	-46.65322	85.67382																																																																																																																															
66	0.542	813.57605	-61.83766	1764.14136	718.86188	-40.81456	1640.29065	948.27100	-65.19800	1696.88391	816.29352	-40.21477	1468.33984	1044.18054	-48.02054	1572.23376	946.67578	74.84338	1493.92273	942.72241	-168.38484	1475.47461	996.78876	179.87189	1489.10095	991.47943	-272.29373	1474.76868	1110.75269	52.46907	1485.73364	1116.56189	-138.62814	1472.60474	1143.07324	56.88158	1397.00452	1037.92883	219.16696	1351.62952	1109.28528	255.81967	1174.90784	1111.56921	157.56558	1162.56677	1016.14551	248.50610	1104.83093	1081.10693	260.63129	971.18024	970.94611	241.95113	936.08032	966.62482	286.91528	905.43829	957.79468	233.92278	887.78552	968.30890	202.84045	842.26813	981.41663	197.27631	791.13495	959.47021	297.07703	820.78400	1008.53149	256.32477	769.41425	1032.18359	212.55896	810.49615	1048.17676	-297.87433	1329.50195	1110.59082	-306.05399	1161.24036	1121.49609	-212.57195	1142.31421	1027.14050	-307.68958	1078.43433	1092.17322	-331.67453	975.37115	996.85468	-313.14087	916.29810	1018.38983	-354.97131	885.04083	975.34619	-312.02023	859.53906	958.66943	-288.82510	814.83771	951.00641	-291.38751	765.91986	995.90460	-368.11340	786.17609	997.70532	-336.43213	726.50323	1006.16467	-277.46036	727.06543	1165.27576	-35.34402	1118.79346	976.73901	157.79642	1065.02551	972.30963	-195.04489	1061.69470	931.35492	160.51909	690.94421	835.74164	89.02084	586.98535	891.15460	146.12039	531.25891	893.08020	25.37827	525.21350	994.13171	109.25024	333.31546	1196.16809	141.09314	194.89807	1160.43298	39.45966	194.83664	1262.88965	82.34479	191.07433	1079.78247	109.10987	70.94414	1099.75745	76.74572	127.52671	973.17548	-179.86200	672.20245	958.70081	-149.97943	531.62329	972.79102	-41.21096	517.43457	958.44849	-95.54603	322.90042	1063.39709	-97.06000	78.35153	1014.25580	-8.23130	111.71716	1100.42346	-22.96609	44.82229	880.79144	-91.88455	42.41399	944.25751	-46.62264	85.53333																																																																																																																															
67	0.550	807.16260	-62.83664	1764.98181	713.64862	-41.49418	1640.35083	944.29449	-66.30333	1696.80420	809.71399	-40.78906	1469.24182	1039.53430	-49.61638	1572.39404	941.34192	74.40994	1493.91931	936.28320	-170.62912	1475.18567	991.49915	179.49423	1490.20374	986.09668	-273.99197	1475.92883	1105.34912	51.06240	1486.13867	1111.40759	-139.56360	1472.53076	1137.82935	57.21406	1396.72241	1033.93860	218.88573	1352.01282	1105.54199	255.48563	1174.90320	1106.98962	156.88350	1162.27380	1012.67792	248.96106	1105.23901	1076.11609	259.83469	971.80817	967.66467	242.05118	936.90039	963.55853	286.89548	905.54718	954.69775	232.43945	888.83038	960.92786	201.08675	846.76221	979.99603	197.16843	796.60547	955.80646	292.16183	820.21820	1005.28204	250.60205	770.40198	1029.28394	207.97462	813.05212	1041.73560	-298.95938	1330.44470	1104.16943	-307.54813	1162.09692	1114.47400	-213.67627	1141.97437	1019.96136	-309.07425	1079.50879	1084.27173	-332.51035	975.20526	989.93164	-314.85199	916.54083	1010.09467	-357.46994	885.78510	966.67419	-314.91919	861.79553	948.85028	-290.78378	815.92664	940.69855	-294.22260	766.35834	986.91559	-370.67676	786.18427	987.77716	-339.14090	727.84845	996.64362	-279.37167	728.42584	1159.72473	-35.88541	1119.60852	971.22046	156.74944	1065.38574	968.28900	-194.32364	1061.72473	922.79449	160.21942	692.49066	825.49323	86.94480	590.08661	879.83667	145.45232	533.27283	882.57629	25.64288	527.04675	979.68494	109.96189	334.47739	1179.72058	140.89833	192.50661	1144.91003	39.53134	192.96968	1246.46887	82.93591	186.74352	1061.19897	109.27874	69.46313	1082.09656	76.82378	126.65388	971.51379	-180.49509	672.35693	956.76636	-150.60371	530.80432	968.98340	-42.30414	517.00342	957.91418	-95.85733	323.13760	1063.39709	-97.06000	78.35153	1014.25580	-8.23130	111.71716	1101.76880	-24.88879	47.67875	880.66650	-91.85074	42.43510	944.50531	-46.98244	85.48788																																																																																																																															
68	0.558	802.70441	-62.53266	1764.96033	707.85797	-42.65638	1640.15234	937.65485	-66.85015	1697.66858	805.46399	-40.75784	1469.91907	1033.81360	-49.86956	1573.40466	935.76208	72.93528	1494.55481	932.68433	-170.01338	1476.07068	986.10443	180.18095	1489.83569	980.51788	-274.28003	1476.33276	1100.25659	51.36483	1486.33789	1106.15442	-139.96054	1473.14221	1132.80432	56.16894	1397.36926	1027.97278	216.64082	1352.49524	1100.35754	253.21194	1175.32202	1100.70874	156.52603	1163.06384	1007.79535	250.75371	1105.57605	1072.35144	259.37503	972.38843	962.34924	243.12152	937.41248	958.38690	286.94766	905.98907	950.42914	230.61617	890.97546	959.23584	199.65071	847.63129	973.22485	191.90839	798.57404	951.97015	288.36035	819.34198	1001.43835	244.13544	772.41064	1025.56128	203.54660	814.45538	1035.75513	-300.86130	1330.57751	1097.07349	-308.47266	1162.26270	1107.74072	-215.11794	1141.92566	1013.63733	-311.02893	1079.96375	1076.61792	-334.41129	975.72504	980.15302	-315.50223	917.51904	1001.50519	-358.21027	886.75061	957.41644	-316.49164	863.01556	938.89758	-292.30283	817.56818	929.21448	-296.83530	768.46838	976.66376	-372.53085	788.11328	977.88544	-341.52148	728.68976	983.73749	-282.35516	728.96808	1154.78577	-36.51863	1120.15625	965.19696	156.71867	1065.18958	962.45343	-195.34740	1061.73108	914.05353	159.30824	693.71191	815.58795	84.52914	592.58948	869.32697	144.50311	535.78656	870.69769	22.19868	528.44885	965.92731	108.54240	334.60306	1163.39185	141.06644	188.40260	1127.45447	38.50962	189.53725	1229.13916	83.67633	181.90027	1041.63916	110.14767	69.41960	1064.34607	77.36975	124.57057	967.50751	-182.02614	671.70563	955.86273	-150.55540	529.94861	963.35663	-43.14899	517.37958	956.93152	-96.69593	322.49716	1063.39709	-97.06000	78.35153	1014.16803	-9.40029	111.34843	1101.33154	-24.51483	47.68427	880.72101	-91.98589	42.55360	944.30634	-46.67495	87.37537																																																																																																																															
